<svg width="32" height="32" fill="none" xmlns="http://www.w3.org/2000/svg"><path d="M16 32c8.837 0 16-7.163 16-16S24.837 0 16 0 0 7.163 0 16s7.163 16 16 16z" fill="#627EEA"/><path d="M16.498 4v8.87l7.497 3.35L16.498 4z" fill="#fff" fill-opacity=".602"/><path d="M16.498 4L9 16.22l7.498-3.35V4z" fill="#fff"/><path d="M16.498 21.968v6.027L24 17.616l-7.502 4.352z" fill="#fff" fill-opacity=".602"/><path d="M16.498 27.995v-6.028L9 17.617l7.498 10.378z" fill="#fff"/><path d="M16.498 20.573l7.497-4.353-7.497-3.348v7.701z" fill="#fff" fill-opacity=".2"/><path d="M9 16.22l7.498 4.353v-7.7L9 16.22z" fill="#fff" fill-opacity=".602"/></svg>