<svg width="24" height="28" fill="none" xmlns="http://www.w3.org/2000/svg"><path d="M22.232 22.248h1v-1h-1v1zm0 4.752v1h1v-1h-1zM3.188 27h-1v1h1v-1zm0-3.78l-.687-.727-.313.296v.431h1zm9.72-9.18l.687.727.003-.003-.69-.724zm2.088-2.52l.888.46.006-.013-.894-.447zm-.504-4.428l-.635.773.015.012.016.012.604-.797zm-5.976-.18l.418.909.01-.005.01-.005-.438-.899zM6.284 8.784l-.541.84.8.517.555-.776-.814-.581zM2.036 6.048l-.83-.558-.569.847.858.552.541-.841zm4.068-3.42l.427.904.01-.005-.437-.899zm10.836-.324l-.41.913.01.004.01.004.39-.921zm3.276 2.592l-.827.563.007.01.008.01.812-.583zm.324 7.776l.902.433-.902-.433zm-3.348 4.104l-.68-.733-.006.006.686.727zm-5.796 5.472l-.687-.727-1.829 1.727h2.516v-1zm9.836 0V27h2v-4.752h-2zm1 3.752H3.188v2h19.044v-2zM4.188 27v-3.78h-2V27h2zm-.313-3.053l9.72-9.18-1.374-1.454-9.72 9.18 1.374 1.454zm9.723-9.183c1.058-1.009 1.85-1.94 2.286-2.785l-1.776-.918c-.284.547-.884 1.296-1.89 2.255l1.38 1.448zm2.292-2.797c.419-.837.646-1.697.646-2.571h-2c0 .518-.133 1.074-.434 1.677l1.788.894zm.646-2.571c0-1.266-.454-2.353-1.44-3.1l-1.208 1.593c.406.308.648.757.648 1.507h2zm-1.41-3.077c-.922-.758-2.185-1.055-3.622-1.055v2c1.203 0 1.932.255 2.353.6l1.27-1.545zm-3.622-1.055c-1.237 0-2.386.243-3.425.749l.874 1.798c.737-.358 1.58-.547 2.551-.547v-2zm-3.405.74c-1.056.484-1.933 1.225-2.629 2.199l1.628 1.162c.504-.706 1.115-1.213 1.836-1.544l-.835-1.818zm-1.274 1.94L2.577 5.206 1.495 6.89l4.248 2.736 1.082-1.682zM2.866 6.605c.875-1.302 2.086-2.328 3.665-3.074l-.854-1.808C3.8 2.61 2.299 3.864 1.207 5.49l1.659 1.116zm3.675-3.079c1.572-.764 3.398-1.159 5.503-1.159v-2c-2.359 0-4.493.444-6.377 1.36l.874 1.8zm5.503-1.159c1.762 0 3.25.294 4.487.849l.818-1.826C15.803.698 14.026.368 12.044.368v2zm4.506.857c1.262.535 2.193 1.284 2.84 2.234l1.653-1.126c-.89-1.306-2.143-2.285-3.713-2.95l-.78 1.842zm2.854 2.254c.656.915 1 2.013 1 3.341h2c0-1.696-.448-3.214-1.375-4.507L19.404 5.48zm1 3.341a7.788 7.788 0 01-.765 3.42l1.803.865a9.786 9.786 0 00.962-4.285h-2zm-.765 3.42c-.497 1.034-1.508 2.301-3.127 3.803l1.36 1.466c1.693-1.57 2.914-3.039 3.57-4.404l-1.803-.866zm-3.133 3.809L10.71 21.52l1.372 1.454 5.796-5.472-1.372-1.454zm-5.11 7.199h10.836v-2H11.396v2z" fill="#C5C5C5"/></svg>