<svg width="24" height="29" fill="none" xmlns="http://www.w3.org/2000/svg"><path d="M15.176 12.06l-.752-.66-1.19 1.357 1.781.29.161-.987zm5.076 2.484l-.74.672.006.007.734-.679zm.612 8.82l.847.531.005-.007-.852-.524zm-3.528 2.952l-.425-.905-.006.002.431.903zm-11.016.432l-.271.962.008.003.008.002.255-.967zm-4.356-2.016l-.892-.453-.388.764.696.5.584-.811zm2.268-4.464l.6-.8-.952-.714-.54 1.061.892.453zm3.312 1.692l-.31.95.01.004.011.003.289-.957zm7.344-.252l.55.836.007-.006.008-.005-.565-.825zM8.768 16.2h-1v1h1v-1zm0-3.852l-.75-.662-.25.284v.378h1zm5.184-5.868l.75.662L16.17 5.48h-2.218v1zm-10.728 0h-1v1h1v-1zm0-4.68v-1h-1v1h1zm17.64 0h1v-1h-1v1zm0 3.78l.752.66.248-.283V5.58h-1zm-5.849 7.467c2.048.334 3.51 1.082 4.496 2.169l1.482-1.344c-1.366-1.505-3.288-2.413-5.656-2.799l-.322 1.974zm4.503 2.176c.988 1.069 1.498 2.403 1.498 4.073h2c0-2.122-.666-3.956-2.03-5.43l-1.468 1.357zm1.498 4.073a6.618 6.618 0 01-1.004 3.544l1.704 1.048a8.618 8.618 0 001.3-4.592h-2zm-1 3.537c-.645 1.03-1.658 1.898-3.105 2.578l.85 1.81c1.72-.808 3.06-1.908 3.95-3.326l-1.694-1.063zm-3.11 2.58c-1.39.663-3.153 1.019-5.33 1.019v2c2.383 0 4.46-.388 6.19-1.213l-.86-1.806zm-5.33 1.019c-1.69 0-3.356-.217-5-.65l-.511 1.933a21.5 21.5 0 005.511.717v-2zm-4.985-.646c-1.613-.455-2.954-1.082-4.043-1.866L1.38 25.544c1.311.945 2.874 1.662 4.669 2.168l.542-1.925zm-3.735-.601l2.268-4.464-1.784-.906-2.268 4.464 1.784.906zm.776-4.117c1.055.791 2.259 1.404 3.601 1.842l.622-1.9c-1.154-.378-2.158-.894-3.023-1.542l-1.2 1.6zm3.623 1.85c1.365.411 2.758.618 4.177.618v-2c-1.221 0-2.42-.177-3.599-.533l-.578 1.914zm4.177.618c1.575 0 2.944-.295 4.005-.992l-1.098-1.672c-.619.407-1.554.664-2.907.664v2zm4.021-1.003c1.117-.766 1.695-1.88 1.695-3.237h-2c0 .707-.262 1.2-.825 1.587l1.13 1.65zm1.695-3.237c0-1.33-.532-2.437-1.63-3.158-1.026-.673-2.436-.938-4.086-.938v2c1.494 0 2.441.251 2.988.61.473.31.728.752.728 1.486h2zM11.432 15.2H8.768v2h2.664v-2zm-1.664 1v-3.852h-2V16.2h2zm-.25-3.19L14.7 7.142l-1.498-1.324-5.184 5.868 1.498 1.324zm4.434-7.53H3.224v2h10.728v-2zm-9.728 1V1.8h-2v4.68h2zm-1-3.68h17.64v-2H3.224v2zm16.64-1v3.78h2V1.8h-2zm.248 3.12l-5.687 6.48 1.502 1.32 5.689-6.48-1.503-1.32z" fill="#C5C5C5"/></svg>