<svg width="26" height="28" fill="none" xmlns="http://www.w3.org/2000/svg"><path d="M24.48 21.708v1h1v-1h-1zm-4.104 0v-1h-1v1h1zm0 5.292v1h1v-1h-1zm-5.688 0h-1v1h1v-1zm0-5.292h1v-1h-1v1zm-13.572 0h-1v1h1v-1zm0-3.924l-.803-.596-.197.265v.331h1zM12.996 1.8v-1h-.503l-.3.403.803.597zm6.12 0l.809.588L21.079.8h-1.963v1zM8.1 16.956l-.809-.588-1.154 1.588H8.1v-1zm6.768 0v1h1v-1h-1zm0-4.716v-1h-1v1h1zm5.508 0h1v-1h-1v1zm0 4.716h-1v1h1v-1zm4.104 0h1v-1h-1v1zm0 3.752h-4.104v2h4.104v-2zm-5.104 1V27h2v-5.292h-2zm1 4.292h-5.688v2h5.688v-2zm-4.688 1v-5.292h-2V27h2zm-1-6.292H1.116v2h13.572v-2zm-12.572 1v-3.924h-2v3.924h2zm-.197-3.327l11.88-15.984-1.606-1.194L.313 17.188 1.92 18.38zM12.996 2.8h6.12v-2h-6.12v2zm5.311-1.588L7.291 16.368l1.618 1.176L19.925 2.388l-1.618-1.176zM8.1 17.956h6.768v-2H8.1v2zm7.768-1V12.24h-2v4.716h2zm-1-3.716h5.508v-2h-5.508v2zm4.508-1v4.716h2V12.24h-2zm1 5.716h4.104v-2h-4.104v2zm3.104-1v4.752h2v-4.752h-2z" fill="#C5C5C5"/></svg>