<svg width="100" height="100" fill="none" xmlns="http://www.w3.org/2000/svg"><g clip-path="url(#clip0)"><path d="M87.484 13.323a47.918 47.918 0 01-30.24-10.748 11.478 11.478 0 00-14.487 0 47.916 47.916 0 01-30.24 10.748 6.228 6.228 0 00-6.229 6.228v16.692a71.166 71.166 0 0026.254 55.204l5.127 4.171a19.54 19.54 0 0024.663 0l5.127-4.17a71.168 71.168 0 0026.253-55.205V19.549a6.226 6.226 0 00-6.228-6.226z" fill="url(#paint0_linear)"/><path d="M50 94.504c-1.2 0-2.375-.417-3.307-1.175l-9.806-7.977a62.932 62.932 0 01-17.01-21.653 62.928 62.928 0 01-6.06-26.86V23.593c0-1.603 1.31-2.965 2.91-3.05A51.945 51.945 0 0046.693 9.001 5.255 5.255 0 0150 7.826c1.201 0 2.375.417 3.307 1.175a51.946 51.946 0 0029.967 11.542c1.6.085 2.91 1.447 2.91 3.05v13.246a62.93 62.93 0 01-6.062 26.86 62.927 62.927 0 01-17.01 21.653l-9.805 7.977A5.254 5.254 0 0150 94.504z" fill="url(#paint1_linear)"/><path d="M50 90.847a4.81 4.81 0 01-3.028-1.076l-8.978-7.304A57.62 57.62 0 0122.42 62.64a57.619 57.619 0 01-5.55-24.592v-12.13c0-1.466 1.2-2.714 2.665-2.792A47.561 47.561 0 0046.972 12.56 4.813 4.813 0 0150 11.483c1.1 0 2.175.383 3.028 1.076a47.563 47.563 0 0027.438 10.568c1.465.078 2.664 1.325 2.664 2.792v12.129a57.619 57.619 0 01-5.55 24.593 57.618 57.618 0 01-15.574 19.826l-8.978 7.304A4.81 4.81 0 0150 90.847z" fill="url(#paint2_linear)"/><path d="M93.712 19.549a6.227 6.227 0 00-6.228-6.227 47.918 47.918 0 01-30.24-10.747A11.457 11.457 0 0050 0v100c4.37 0 8.74-1.46 12.331-4.383l5.127-4.17a71.168 71.168 0 0026.254-55.205V19.549z" fill="url(#paint3_linear)"/><path d="M82.633 29.1c-1.96-1.959-5.135-1.557-7.095.402l-24.44 24.44c-.239.239-.912.69-1.098.69a.966.966 0 01-.696-.288l-9.369-9.369c-1.959-1.959-4.934-1.959-6.893 0-1.96 1.96-2.16 4.734-.2 6.693l37.395 37.395a71.169 71.169 0 0023.369-48.952l-10.973-11.01z" fill="url(#paint4_linear)"/><path d="M67.458 91.446a71.166 71.166 0 0023.945-37.228L68.798 31.613c-4.717-4.983-11.394-7.69-18.798-7.69-14.105 0-25.482 11.377-25.482 25.482 0 7.404 2.707 14.08 7.69 18.798l27.169 27.168a2.29 2.29 0 003.064.157l5.017-4.082z" fill="url(#paint5_linear)"/><path d="M50 75.289c14.295 0 25.884-11.589 25.884-25.884S64.295 23.521 50 23.521 24.116 35.11 24.116 49.406 35.705 75.29 50 75.29z" fill="url(#paint6_linear)"/><path d="M70.902 34.138L51.097 53.942c-.238.238-.911.69-1.097.69a.966.966 0 01-.696-.289l-9.369-9.368c-1.959-1.96-4.934-1.96-6.893 0-1.96 1.959-2.16 4.733-.2 6.692l22.966 22.967c11.498-2.636 20.076-12.931 20.076-25.23a25.76 25.76 0 00-4.982-15.266z" fill="url(#paint7_linear)"/><path d="M50 64.263c-2.943 0-5.71-1.146-7.79-3.227l-9.369-9.368a5.016 5.016 0 117.094-7.094l9.369 9.368c.238.239.51.289.696.289.186 0 .458-.05.696-.289L75.538 29.1a5.017 5.017 0 017.095 7.094L57.79 61.036A10.945 10.945 0 0150 64.263z" fill="url(#paint8_linear)"/></g><defs><linearGradient id="paint0_linear" x1="13.376" y1="4.722" x2="88.761" y2="80.107" gradientUnits="userSpaceOnUse"><stop stop-color="#B5DBFF"/><stop offset="1" stop-color="#76E2F8"/></linearGradient><linearGradient id="paint1_linear" x1="99.19" y1="91.735" x2="32.49" y2="25.035" gradientUnits="userSpaceOnUse"><stop stop-color="#B5DBFF" stop-opacity="0"/><stop offset=".243" stop-color="#93CEF6" stop-opacity=".243"/><stop offset=".576" stop-color="#6ABFEC" stop-opacity=".576"/><stop offset=".84" stop-color="#51B5E5" stop-opacity=".84"/><stop offset="1" stop-color="#48B2E3"/></linearGradient><linearGradient id="paint2_linear" x1="37.104" y1="30.376" x2="66.404" y2="59.676" gradientUnits="userSpaceOnUse"><stop stop-color="#EDF5FF"/><stop offset="1" stop-color="#D5E8FE"/></linearGradient><linearGradient id="paint3_linear" x1="59.085" y1="51.684" x2="-1.11" y2="22.791" gradientUnits="userSpaceOnUse"><stop stop-color="#B5DBFF" stop-opacity="0"/><stop offset=".173" stop-color="#8FC5E9" stop-opacity=".173"/><stop offset=".454" stop-color="#56A4C8" stop-opacity=".454"/><stop offset=".696" stop-color="#2D8DB1" stop-opacity=".696"/><stop offset=".885" stop-color="#147EA2" stop-opacity=".885"/><stop offset="1" stop-color="#0B799D"/></linearGradient><linearGradient id="paint4_linear" x1="82.112" y1="63.369" x2="61.512" y2="47.718" gradientUnits="userSpaceOnUse"><stop stop-color="#B5DBFF" stop-opacity="0"/><stop offset=".173" stop-color="#8FC5E9" stop-opacity=".173"/><stop offset=".454" stop-color="#56A4C8" stop-opacity=".454"/><stop offset=".696" stop-color="#2D8DB1" stop-opacity=".696"/><stop offset=".885" stop-color="#147EA2" stop-opacity=".885"/><stop offset="1" stop-color="#0B799D"/></linearGradient><linearGradient id="paint5_linear" x1="78.644" y1="78.049" x2="44.311" y2="43.716" gradientUnits="userSpaceOnUse"><stop stop-color="#B5DBFF" stop-opacity="0"/><stop offset=".173" stop-color="#8FC5E9" stop-opacity=".173"/><stop offset=".454" stop-color="#56A4C8" stop-opacity=".454"/><stop offset=".696" stop-color="#2D8DB1" stop-opacity=".696"/><stop offset=".885" stop-color="#147EA2" stop-opacity=".885"/><stop offset="1" stop-color="#0B799D"/></linearGradient><linearGradient id="paint6_linear" x1="37.961" y1="37.366" x2="62.909" y2="62.315" gradientUnits="userSpaceOnUse"><stop stop-color="#B9DD39"/><stop offset="1" stop-color="#90CC1C"/></linearGradient><linearGradient id="paint7_linear" x1="73.527" y1="64.558" x2="64.25" y2="55.28" gradientUnits="userSpaceOnUse"><stop stop-color="#6B0" stop-opacity="0"/><stop offset="1" stop-color="#6B0"/></linearGradient><linearGradient id="paint8_linear" x1="47.722" y1="30.369" x2="73.562" y2="56.209" gradientUnits="userSpaceOnUse"><stop stop-color="#0B799D"/><stop offset="1" stop-color="#07485E"/></linearGradient><clipPath id="clip0"><path fill="#fff" d="M0 0h100v100H0z"/></clipPath></defs></svg>