<svg width="100" height="100" fill="none" xmlns="http://www.w3.org/2000/svg"><g clip-path="url(#clip0)"><path d="M91.65 83.189H8.35a3.922 3.922 0 01-3.922-3.922V20.733A3.922 3.922 0 018.35 16.81h83.3a3.921 3.921 0 013.922 3.922v58.534a3.921 3.921 0 01-3.922 3.922zm-79.379-7.843H87.73V24.654H12.27v50.692z" fill="url(#paint0_linear)"/><path d="M4.428 20.733v13.803l7.843 7.843V24.654h5.191v-7.843H8.35a3.922 3.922 0 00-3.922 3.922z" fill="url(#paint1_linear)"/><path d="M74.486 34.728H6.5a6.5 6.5 0 01-6.5-6.5V12.93a6.5 6.5 0 016.5-6.5h67.986a6.5 6.5 0 016.5 6.5v15.298a6.5 6.5 0 01-6.5 6.5z" fill="url(#paint2_linear)"/><path d="M0 20.58v7.648a6.5 6.5 0 006.5 6.5h67.986a6.5 6.5 0 006.5-6.5V20.58H0z" fill="url(#paint3_linear)"/><path d="M74.487 6.43H40.493v28.298h33.994a6.5 6.5 0 006.5-6.5V12.93a6.5 6.5 0 00-6.5-6.5z" fill="url(#paint4_linear)"/><path d="M12.44 25.256H9.402a3.157 3.157 0 01-3.156-3.157v-3.04A3.157 3.157 0 019.4 15.904h3.04a3.157 3.157 0 013.156 3.157v3.04a3.156 3.156 0 01-3.156 3.156z" fill="url(#paint5_linear)"/><path d="M36.289 25.256h-3.04a3.157 3.157 0 01-3.156-3.157v-3.04a3.156 3.156 0 013.156-3.156h3.04a3.156 3.156 0 013.156 3.157v3.04a3.157 3.157 0 01-3.156 3.156z" fill="url(#paint6_linear)"/><path d="M24.365 25.256h-3.04a3.157 3.157 0 01-3.156-3.157v-3.04a3.157 3.157 0 013.156-3.156h3.04a3.156 3.156 0 013.156 3.157v3.04a3.157 3.157 0 01-3.156 3.156z" fill="url(#paint7_linear)"/><path d="M70.677 25.256H50.185a3.626 3.626 0 01-3.625-3.626v-2.773a3.626 3.626 0 013.625-3.626h20.493a3.626 3.626 0 013.625 3.626v2.773a3.626 3.626 0 01-3.626 3.626z" fill="url(#paint8_linear)"/><path d="M93.5 93.57H25.514a6.5 6.5 0 01-6.5-6.5V71.772a6.5 6.5 0 016.5-6.5H93.5a6.5 6.5 0 016.5 6.5V87.07a6.5 6.5 0 01-6.5 6.5z" fill="url(#paint9_linear)"/><path d="M19.014 79.42v7.65a6.5 6.5 0 006.5 6.5H93.5a6.5 6.5 0 006.5-6.5v-7.65H19.014z" fill="url(#paint10_linear)"/><path d="M93.5 65.272H59.508V93.57h33.994a6.5 6.5 0 006.499-6.5V71.773a6.5 6.5 0 00-6.5-6.5z" fill="url(#paint11_linear)"/><path d="M31.455 84.097h-3.04a3.157 3.157 0 01-3.156-3.157v-3.039a3.156 3.156 0 013.156-3.156h3.04A3.156 3.156 0 0134.61 77.9v3.04a3.156 3.156 0 01-3.156 3.156z" fill="url(#paint12_linear)"/><path d="M55.303 84.097h-3.04a3.157 3.157 0 01-3.156-3.157v-3.039a3.157 3.157 0 013.156-3.156h3.04a3.156 3.156 0 013.156 3.156v3.04a3.156 3.156 0 01-3.156 3.156z" fill="url(#paint13_linear)"/><path d="M43.379 84.097h-3.04a3.157 3.157 0 01-3.156-3.157v-3.039a3.156 3.156 0 013.157-3.156h3.039a3.157 3.157 0 013.157 3.156v3.04a3.156 3.156 0 01-3.157 3.156z" fill="url(#paint14_linear)"/><path d="M89.692 84.097H69.199a3.626 3.626 0 01-3.625-3.626v-2.773a3.626 3.626 0 013.625-3.626h20.493a3.626 3.626 0 013.626 3.626v2.773a3.626 3.626 0 01-3.626 3.626z" fill="url(#paint15_linear)"/><path d="M91.65 16.81h-3.922v11.416l7.844 7.843V20.733a3.922 3.922 0 00-3.922-3.922z" fill="url(#paint16_linear)"/><path d="M91.483 29.097A8.517 8.517 0 00100 20.579a8.517 8.517 0 10-8.517 8.518z" fill="url(#paint17_linear)"/><path d="M8.517 87.938a8.517 8.517 0 100-17.035 8.517 8.517 0 000 17.035z" fill="url(#paint18_linear)"/></g><defs><linearGradient id="paint0_linear" x1="38.922" y1="38.922" x2="71.961" y2="71.961" gradientUnits="userSpaceOnUse"><stop stop-color="#0B799D"/><stop offset="1" stop-color="#07485E"/></linearGradient><linearGradient id="paint1_linear" x1="20.773" y1="35.502" x2="10.351" y2="25.08" gradientUnits="userSpaceOnUse"><stop stop-color="#07485E" stop-opacity="0"/><stop offset="1" stop-color="#03232E"/></linearGradient><linearGradient id="paint2_linear" x1="39.127" y1="8.828" x2="41.2" y2="26.661" gradientUnits="userSpaceOnUse"><stop stop-color="#EDF5FF"/><stop offset="1" stop-color="#D5E8FE"/></linearGradient><linearGradient id="paint3_linear" x1="39.943" y1="19.862" x2="41.248" y2="31.092" gradientUnits="userSpaceOnUse"><stop stop-color="#B5DBFF"/><stop offset="1" stop-color="#48B2E3"/></linearGradient><linearGradient id="paint4_linear" x1="47.746" y1="15.636" x2="4.619" y2="-4.715" gradientUnits="userSpaceOnUse"><stop stop-color="#B5DBFF" stop-opacity="0"/><stop offset=".173" stop-color="#8FC5E9" stop-opacity=".173"/><stop offset=".454" stop-color="#56A4C8" stop-opacity=".454"/><stop offset=".696" stop-color="#2D8DB1" stop-opacity=".696"/><stop offset=".885" stop-color="#147EA2" stop-opacity=".885"/><stop offset="1" stop-color="#0B799D"/></linearGradient><linearGradient id="paint5_linear" x1="9.882" y1="19.788" x2="14.155" y2="23.043" gradientUnits="userSpaceOnUse"><stop stop-color="#FF637B"/><stop offset="1" stop-color="#E63950"/></linearGradient><linearGradient id="paint6_linear" x1="32.498" y1="18.309" x2="42.625" y2="28.436" gradientUnits="userSpaceOnUse"><stop stop-color="#76E2F8"/><stop offset="1" stop-color="#0095FF"/></linearGradient><linearGradient id="paint7_linear" x1="20.574" y1="18.309" x2="30.701" y2="28.436" gradientUnits="userSpaceOnUse"><stop stop-color="#76E2F8"/><stop offset="1" stop-color="#0095FF"/></linearGradient><linearGradient id="paint8_linear" x1="60.431" y1="26.968" x2="60.431" y2="9.999" gradientUnits="userSpaceOnUse"><stop stop-color="#B5DBFF"/><stop offset="1" stop-color="#48B2E3"/></linearGradient><linearGradient id="paint9_linear" x1="58.141" y1="67.67" x2="60.214" y2="85.502" gradientUnits="userSpaceOnUse"><stop stop-color="#EDF5FF"/><stop offset="1" stop-color="#D5E8FE"/></linearGradient><linearGradient id="paint10_linear" x1="58.957" y1="78.703" x2="60.263" y2="89.933" gradientUnits="userSpaceOnUse"><stop stop-color="#B5DBFF"/><stop offset="1" stop-color="#48B2E3"/></linearGradient><linearGradient id="paint11_linear" x1="66.76" y1="74.478" x2="23.633" y2="54.126" gradientUnits="userSpaceOnUse"><stop stop-color="#B5DBFF" stop-opacity="0"/><stop offset=".173" stop-color="#8FC5E9" stop-opacity=".173"/><stop offset=".454" stop-color="#56A4C8" stop-opacity=".454"/><stop offset=".696" stop-color="#2D8DB1" stop-opacity=".696"/><stop offset=".885" stop-color="#147EA2" stop-opacity=".885"/><stop offset="1" stop-color="#0B799D"/></linearGradient><linearGradient id="paint12_linear" x1="28.896" y1="78.629" x2="33.169" y2="81.885" gradientUnits="userSpaceOnUse"><stop stop-color="#FF637B"/><stop offset="1" stop-color="#E63950"/></linearGradient><linearGradient id="paint13_linear" x1="51.512" y1="77.15" x2="61.639" y2="87.277" gradientUnits="userSpaceOnUse"><stop stop-color="#76E2F8"/><stop offset="1" stop-color="#0095FF"/></linearGradient><linearGradient id="paint14_linear" x1="39.589" y1="77.15" x2="49.716" y2="87.277" gradientUnits="userSpaceOnUse"><stop stop-color="#76E2F8"/><stop offset="1" stop-color="#0095FF"/></linearGradient><linearGradient id="paint15_linear" x1="79.445" y1="85.809" x2="79.445" y2="68.841" gradientUnits="userSpaceOnUse"><stop stop-color="#B5DBFF"/><stop offset="1" stop-color="#48B2E3"/></linearGradient><linearGradient id="paint16_linear" x1="100.519" y1="32.535" x2="91.442" y2="23.458" gradientUnits="userSpaceOnUse"><stop stop-color="#07485E" stop-opacity="0"/><stop offset="1" stop-color="#03232E"/></linearGradient><linearGradient id="paint17_linear" x1="88.981" y1="18.078" x2="95.803" y2="24.9" gradientUnits="userSpaceOnUse"><stop stop-color="#B9DD39"/><stop offset="1" stop-color="#90CC1C"/></linearGradient><linearGradient id="paint18_linear" x1="6.016" y1="76.919" x2="12.838" y2="83.741" gradientUnits="userSpaceOnUse"><stop stop-color="#B9DD39"/><stop offset="1" stop-color="#90CC1C"/></linearGradient><clipPath id="clip0"><path fill="#fff" d="M0 0h100v100H0z"/></clipPath></defs></svg>