<svg width="100" height="100" fill="none" xmlns="http://www.w3.org/2000/svg"><path d="M31.168 97.891h-20.83a1.973 1.973 0 110-3.947h20.83a2.936 2.936 0 002.932-2.932v-9.45a1.974 1.974 0 013.947 0v9.45a6.887 6.887 0 01-6.88 6.88z" fill="url(#paint0_linear)"/><path d="M9.055 100a4.145 4.145 0 100-8.29 4.145 4.145 0 000 8.29z" fill="url(#paint1_linear)"/><path d="M68.832 97.891h20.83a1.973 1.973 0 100-3.947h-20.83a2.936 2.936 0 01-2.932-2.932v-9.45a1.974 1.974 0 00-3.947 0v9.45a6.887 6.887 0 006.88 6.88z" fill="url(#paint2_linear)"/><path d="M90.945 100a4.144 4.144 0 100-8.289 4.144 4.144 0 000 8.289z" fill="url(#paint3_linear)"/><path d="M50 100a1.973 1.973 0 01-1.974-1.974V81.561a1.973 1.973 0 113.947 0v16.465c0 1.09-.883 1.974-1.973 1.974z" fill="url(#paint4_linear)"/><path d="M31.168 2.108h-20.83a1.973 1.973 0 100 3.947h20.83A2.936 2.936 0 0134.1 8.988v9.45a1.974 1.974 0 003.947 0v-9.45a6.887 6.887 0 00-6.88-6.88z" fill="url(#paint5_linear)"/><path d="M9.055 8.289a4.145 4.145 0 100-8.29 4.145 4.145 0 000 8.29z" fill="url(#paint6_linear)"/><path d="M68.832 2.108h20.83a1.973 1.973 0 110 3.947h-20.83A2.936 2.936 0 0065.9 8.988v9.45a1.974 1.974 0 01-3.947 0v-9.45a6.887 6.887 0 016.88-6.88z" fill="url(#paint7_linear)"/><path d="M90.945 8.289a4.144 4.144 0 100-8.289 4.144 4.144 0 000 8.289z" fill="url(#paint8_linear)"/><path d="M50 0c-1.09 0-1.974.884-1.974 1.974v16.464a1.974 1.974 0 103.947 0V1.974A1.973 1.973 0 0050 0z" fill="url(#paint9_linear)"/><path d="M2.273 31.168v-9.474a1.973 1.973 0 113.947 0v9.474A2.936 2.936 0 009.152 34.1h9.45a1.974 1.974 0 010 3.947h-9.45a6.887 6.887 0 01-6.88-6.88z" fill="url(#paint10_linear)"/><path d="M4.308 24.557a4.145 4.145 0 100-8.29 4.145 4.145 0 000 8.29z" fill="url(#paint11_linear)"/><path d="M2.273 68.832v9.474a1.973 1.973 0 103.947 0v-9.474A2.936 2.936 0 019.152 65.9h9.45a1.974 1.974 0 000-3.947h-9.45a6.887 6.887 0 00-6.88 6.88z" fill="url(#paint12_linear)"/><path d="M4.308 83.732a4.145 4.145 0 100-8.289 4.145 4.145 0 000 8.29z" fill="url(#paint13_linear)"/><path d="M.164 50c0-1.09.883-1.974 1.973-1.974h16.465a1.973 1.973 0 110 3.947H2.137A1.974 1.974 0 01.164 50z" fill="url(#paint14_linear)"/><path d="M97.728 31.168v-9.474a1.973 1.973 0 10-3.948 0v9.474a2.936 2.936 0 01-2.932 2.932h-9.45a1.974 1.974 0 000 3.947h9.45a6.887 6.887 0 006.88-6.88z" fill="url(#paint15_linear)"/><path d="M95.692 24.557a4.144 4.144 0 100-8.29 4.144 4.144 0 000 8.29z" fill="url(#paint16_linear)"/><path d="M97.728 68.832v9.474a1.973 1.973 0 11-3.948 0v-9.474a2.936 2.936 0 00-2.932-2.932h-9.45a1.974 1.974 0 010-3.947h9.45a6.887 6.887 0 016.88 6.88z" fill="url(#paint17_linear)"/><path d="M95.692 83.732a4.144 4.144 0 100-8.289 4.144 4.144 0 000 8.29z" fill="url(#paint18_linear)"/><path d="M99.836 50c0-1.09-.883-1.974-1.973-1.974H81.398a1.974 1.974 0 100 3.947h16.465c1.09 0 1.973-.883 1.973-1.973z" fill="url(#paint19_linear)"/><path d="M51.56 82.859l1.002-.298c2.55-.758 5.028-2.687 7.165-5.58 2.044-2.767 3.792-6.43 5.054-10.591l.373-1.23-1.263.237c-3.67.689-7.564 1.096-11.573 1.21l-.758.02V82.86z" fill="url(#paint20_linear)"/><path d="M82.056 57.94l-1.906 1.331c-1.472 1.028-3.197 1.977-5.13 2.822a46.283 46.283 0 01-5.99 2.111l-.436.123-.11.44c-.956 3.847-2.273 7.337-3.914 10.37a30.663 30.663 0 01-2.53 3.953l-1.79 2.358 2.719-1.17a33.017 33.017 0 0018.369-20.126l.718-2.212z" fill="url(#paint21_linear)"/><path d="M68.484 35.233l.11.44.437.123a46.238 46.238 0 015.989 2.112c1.933.844 3.659 1.794 5.13 2.821l1.906 1.331-.718-2.211A33.017 33.017 0 0062.97 19.722l-2.72-1.17 1.791 2.358a30.685 30.685 0 012.53 3.953c1.641 3.034 2.959 6.523 3.915 10.37z" fill="url(#paint22_linear)"/><path d="M70.53 39.524l-1.213-.41.193 1.266c.474 3.118.715 6.354.715 9.62 0 3.266-.24 6.502-.715 9.62l-.193 1.267 1.213-.41C78.301 57.849 82.94 53.932 82.94 50c0-3.932-4.639-7.849-12.41-10.476z" fill="url(#paint23_linear)"/><path d="M52.562 17.44l-1.002-.298v16.23l.757.022c4.01.114 7.904.52 11.574 1.209l1.262.237-.372-1.23c-1.262-4.161-3.01-7.824-5.055-10.592-2.136-2.892-4.614-4.821-7.164-5.579z" fill="url(#paint24_linear)"/><path d="M51.56 63.508l.803-.023c4.621-.137 9.023-.672 13.084-1.59l.497-.113.097-.5A59.349 59.349 0 0067.105 50a59.35 59.35 0 00-1.064-11.283l-.097-.5-.497-.112c-4.06-.918-8.463-1.453-13.084-1.59l-.803-.024v27.017z" fill="url(#paint25_linear)"/><path d="M29.47 60.477l1.213.41-.192-1.266a64.167 64.167 0 01-.716-9.62c0-3.266.24-6.503.716-9.621l.192-1.267-1.213.41C21.699 42.152 17.06 46.069 17.06 50c0 3.932 4.639 7.849 12.41 10.477z" fill="url(#paint26_linear)"/><path d="M48.44 17.142l-1.002.297c-2.55.758-5.028 2.687-7.164 5.58-2.045 2.767-3.793 6.43-5.055 10.591l-.373 1.23 1.263-.237c3.67-.689 7.564-1.095 11.574-1.209l.757-.022v-16.23z" fill="url(#paint27_linear)"/><path d="M47.438 82.56l1.002.298v-16.23l-.757-.022c-4.01-.113-7.904-.52-11.574-1.209l-1.263-.237.373 1.23c1.262 4.162 3.01 7.824 5.055 10.592 2.136 2.892 4.614 4.821 7.164 5.579z" fill="url(#paint28_linear)"/><path d="M48.44 36.491l-.802.024c-4.622.137-9.024.672-13.085 1.59l-.496.112-.098.5A59.349 59.349 0 0032.895 50c0 3.847.358 7.643 1.064 11.283l.097.5.497.111c4.06.919 8.463 1.454 13.085 1.59l.802.024V36.492z" fill="url(#paint29_linear)"/><path d="M37.03 80.278l2.72 1.17-1.79-2.358a30.728 30.728 0 01-2.53-3.952c-1.641-3.034-2.958-6.524-3.915-10.371l-.109-.44-.437-.123a46.264 46.264 0 01-5.989-2.111c-1.933-.845-3.658-1.794-5.13-2.822l-1.906-1.33.718 2.21A33.018 33.018 0 0037.03 80.279z" fill="url(#paint30_linear)"/><path d="M24.98 37.908a46.279 46.279 0 015.99-2.112l.436-.123.11-.44c.956-3.847 2.273-7.336 3.914-10.37a30.717 30.717 0 012.53-3.953l1.79-2.357-2.72 1.169a33.016 33.016 0 00-18.368 20.127l-.718 2.211 1.906-1.331c1.471-1.027 3.197-1.977 5.13-2.821z" fill="url(#paint31_linear)"/><path d="M76.05 23.95C69.092 16.992 59.84 13.16 50 13.16s-19.092 3.832-26.05 10.79C16.992 30.91 13.16 40.16 13.16 50s3.832 19.091 10.79 26.05C30.91 83.008 40.16 86.84 50 86.84s19.092-3.832 26.05-10.79C83.008 69.09 86.84 59.84 86.84 50s-3.832-19.092-10.79-26.05zM33.675 50c0-3.891.373-7.646 1.05-11.134 3.825-.865 8.18-1.43 12.936-1.571v25.41c-4.757-.14-9.111-.706-12.936-1.57A58.661 58.661 0 0133.675 50zm-3.955 9.738C22.286 57.224 17.839 53.496 17.839 50c0-3.496 4.447-7.224 11.88-9.738A64.867 64.867 0 0028.996 50c0 3.334.247 6.603.725 9.738zm34.315-25.902c-3.686-.69-7.628-1.106-11.696-1.221V18.186c4.922 1.462 9.207 7.44 11.696 15.65zM47.66 18.186v14.428c-4.068.116-8.01.531-11.696 1.222 2.489-8.208 6.774-14.187 11.696-15.65zm0 49.2v14.427c-4.922-1.462-9.207-7.44-11.696-15.65 3.686.692 7.628 1.107 11.696 1.223zm4.678 14.427V67.386c4.068-.116 8.01-.531 11.696-1.222-2.489 8.208-6.774 14.187-11.696 15.65zm0-19.108v-25.41c4.757.14 9.111.706 12.936 1.571A58.66 58.66 0 0166.325 50c0 3.89-.373 7.646-1.05 11.134-3.825.865-8.18 1.43-12.936 1.571zM70.28 40.262c7.434 2.514 11.881 6.242 11.881 9.738 0 3.496-4.447 7.224-11.88 9.738.476-3.135.723-6.404.723-9.738a64.88 64.88 0 00-.724-9.738zm10.316-.172c-1.502-1.05-3.26-2.021-5.264-2.897a46.925 46.925 0 00-6.09-2.148c-.962-3.869-2.301-7.44-3.986-10.554a31.383 31.383 0 00-2.595-4.053c8.465 3.64 15.065 10.812 17.935 19.652zM37.34 20.438a31.362 31.362 0 00-2.595 4.053c-1.684 3.114-3.024 6.685-3.985 10.554a46.94 46.94 0 00-6.091 2.148c-2.003.876-3.761 1.847-5.264 2.896 2.87-8.839 9.47-16.011 17.935-19.65zM19.404 59.91c1.502 1.05 3.26 2.021 5.264 2.897a46.94 46.94 0 006.09 2.147c.962 3.87 2.301 7.44 3.986 10.554a31.376 31.376 0 002.595 4.053c-8.465-3.639-15.065-10.811-17.935-19.65zM62.66 79.562a31.355 31.355 0 002.595-4.053c1.684-3.114 3.024-6.685 3.985-10.554a46.94 46.94 0 006.091-2.148c2.004-.876 3.762-1.847 5.264-2.896-2.87 8.839-9.47 16.011-17.935 19.65z" fill="url(#paint32_linear)"/><path d="M76.05 76.05C83.008 69.092 86.84 59.84 86.84 50s-3.832-19.092-10.79-26.05C69.092 16.992 59.84 13.16 50 13.16v73.68c9.84 0 19.092-3.832 26.05-10.79z" fill="url(#paint33_linear)"/><path d="M76.217 75.879L39.343 39.004c-.398-.722-1.166-.768-2.1-.755l-14.156.36c-1.852.026-2.327 1.458-1.32 3.013l1.55 2.395c-4.078 3.26-7.864 7.652-9.56 12.633 1.325 7.309 4.83 14.036 10.193 19.4C30.908 83.008 40.16 86.84 50 86.84s19.091-3.832 26.05-10.79l.167-.171z" fill="url(#paint34_linear)"/><path d="M23.17 75.22c-.597-1.858-1.49-8.778-1.423-10.847.163-5.004 2.453-9.484 5.984-12.576l1.588 2.453c1.007 1.556 3.332 1.394 4.115-.285l5.98-12.833c.733-1.575-.433-3.377-2.171-3.351l-14.156.203c-1.852.027-2.951 2.083-1.944 3.638l1.55 2.395c-6.046 4.832-10.085 12.155-10.303 20.195-.023.849.117 2.162.335 3.628.742 4.99 5.494 8.355 10.445 7.38z" fill="url(#paint35_linear)"/><path d="M76.849 24.776l-.019.004c.597 1.858 1.49 8.778 1.423 10.847-.155 4.767-2.243 9.06-5.493 12.128l-2.177-2.147c-1.053-1.402-3.258-1.2-4.016.427l-5.98 12.833a2.355 2.355 0 00.726 2.885l14.514 14.514c.074-.073.15-.144.223-.217C83.008 69.092 86.84 59.84 86.84 50c0-9.456-3.54-18.368-9.991-25.224z" fill="url(#paint36_linear)"/><path d="M76.83 24.78c.597 1.858 1.49 8.778 1.423 10.847-.163 5.004-2.453 9.484-5.984 12.576l-1.588-2.453c-1.007-1.556-3.332-1.394-4.115.285l-5.98 12.833c-.733 1.575.433 3.377 2.171 3.351l14.156-.203c1.852-.027 2.951-2.083 1.944-3.638l-1.55-2.395c6.046-4.832 10.085-12.155 10.303-20.195.023-.849-.117-2.162-.335-3.627-.741-4.991-5.494-8.356-10.445-7.381z" fill="url(#paint37_linear)"/><defs><linearGradient id="paint0_linear" x1="23.907" y1="89.441" x2="36.973" y2="102.507" gradientUnits="userSpaceOnUse"><stop stop-color="#EDF5FF"/><stop offset="1" stop-color="#B5DBFF"/></linearGradient><linearGradient id="paint1_linear" x1="7.723" y1="94.523" x2="11.422" y2="98.221" gradientUnits="userSpaceOnUse"><stop stop-color="#B9DD39"/><stop offset="1" stop-color="#90CC1C"/></linearGradient><linearGradient id="paint2_linear" x1="62.643" y1="80.327" x2="79.872" y2="97.556" gradientUnits="userSpaceOnUse"><stop stop-color="#EDF5FF"/><stop offset="1" stop-color="#B5DBFF"/></linearGradient><linearGradient id="paint3_linear" x1="89.612" y1="94.523" x2="93.311" y2="98.221" gradientUnits="userSpaceOnUse"><stop stop-color="#B9DD39"/><stop offset="1" stop-color="#90CC1C"/></linearGradient><linearGradient id="paint4_linear" x1="48.026" y1="89.794" x2="51.974" y2="89.794" gradientUnits="userSpaceOnUse"><stop stop-color="#EDF5FF"/><stop offset="1" stop-color="#B5DBFF"/></linearGradient><linearGradient id="paint5_linear" x1="23.907" y1="10.559" x2="36.973" y2="-2.507" gradientUnits="userSpaceOnUse"><stop stop-color="#EDF5FF"/><stop offset="1" stop-color="#B5DBFF"/></linearGradient><linearGradient id="paint6_linear" x1="7.723" y1="2.812" x2="11.422" y2="6.511" gradientUnits="userSpaceOnUse"><stop stop-color="#B9DD39"/><stop offset="1" stop-color="#90CC1C"/></linearGradient><linearGradient id="paint7_linear" x1="62.643" y1="19.673" x2="79.872" y2="2.444" gradientUnits="userSpaceOnUse"><stop stop-color="#EDF5FF"/><stop offset="1" stop-color="#B5DBFF"/></linearGradient><linearGradient id="paint8_linear" x1="89.612" y1="2.812" x2="93.311" y2="6.511" gradientUnits="userSpaceOnUse"><stop stop-color="#B9DD39"/><stop offset="1" stop-color="#90CC1C"/></linearGradient><linearGradient id="paint9_linear" x1="48.026" y1="10.206" x2="51.974" y2="10.206" gradientUnits="userSpaceOnUse"><stop stop-color="#EDF5FF"/><stop offset="1" stop-color="#B5DBFF"/></linearGradient><linearGradient id="paint10_linear" x1="9.857" y1="30.451" x2="2.009" y2="38.299" gradientUnits="userSpaceOnUse"><stop stop-color="#EDF5FF"/><stop offset="1" stop-color="#B5DBFF"/></linearGradient><linearGradient id="paint11_linear" x1="5.641" y1="19.08" x2="1.942" y2="22.778" gradientUnits="userSpaceOnUse"><stop stop-color="#B9DD39"/><stop offset="1" stop-color="#90CC1C"/></linearGradient><linearGradient id="paint12_linear" x1="9.857" y1="69.549" x2="2.009" y2="61.701" gradientUnits="userSpaceOnUse"><stop stop-color="#EDF5FF"/><stop offset="1" stop-color="#B5DBFF"/></linearGradient><linearGradient id="paint13_linear" x1="5.641" y1="80.92" x2="1.942" y2="77.222" gradientUnits="userSpaceOnUse"><stop stop-color="#B9DD39"/><stop offset="1" stop-color="#90CC1C"/></linearGradient><linearGradient id="paint14_linear" x1="10.37" y1="48.026" x2="10.37" y2="51.973" gradientUnits="userSpaceOnUse"><stop stop-color="#EDF5FF"/><stop offset="1" stop-color="#B5DBFF"/></linearGradient><linearGradient id="paint15_linear" x1="90.143" y1="30.451" x2="97.991" y2="38.299" gradientUnits="userSpaceOnUse"><stop stop-color="#EDF5FF"/><stop offset="1" stop-color="#B5DBFF"/></linearGradient><linearGradient id="paint16_linear" x1="94.36" y1="19.08" x2="98.058" y2="22.778" gradientUnits="userSpaceOnUse"><stop stop-color="#B9DD39"/><stop offset="1" stop-color="#90CC1C"/></linearGradient><linearGradient id="paint17_linear" x1="90.143" y1="69.549" x2="97.991" y2="61.701" gradientUnits="userSpaceOnUse"><stop stop-color="#EDF5FF"/><stop offset="1" stop-color="#B5DBFF"/></linearGradient><linearGradient id="paint18_linear" x1="94.36" y1="80.92" x2="98.058" y2="77.222" gradientUnits="userSpaceOnUse"><stop stop-color="#B9DD39"/><stop offset="1" stop-color="#90CC1C"/></linearGradient><linearGradient id="paint19_linear" x1="89.63" y1="48.026" x2="89.63" y2="51.973" gradientUnits="userSpaceOnUse"><stop stop-color="#EDF5FF"/><stop offset="1" stop-color="#B5DBFF"/></linearGradient><linearGradient id="paint20_linear" x1="18.623" y1="34.276" x2="75.587" y2="91.239" gradientUnits="userSpaceOnUse"><stop stop-color="#B5DBFF"/><stop offset="1" stop-color="#76E2F8"/></linearGradient><linearGradient id="paint21_linear" x1="29.986" y1="28.527" x2="72.284" y2="70.826" gradientUnits="userSpaceOnUse"><stop stop-color="#EDF5FF"/><stop offset="1" stop-color="#D5E8FE"/></linearGradient><linearGradient id="paint22_linear" x1="49.13" y1="9.383" x2="91.428" y2="51.682" gradientUnits="userSpaceOnUse"><stop stop-color="#EDF5FF"/><stop offset="1" stop-color="#D5E8FE"/></linearGradient><linearGradient id="paint23_linear" x1="37.419" y1="15.479" x2="94.383" y2="72.443" gradientUnits="userSpaceOnUse"><stop stop-color="#B5DBFF"/><stop offset="1" stop-color="#76E2F8"/></linearGradient><linearGradient id="paint24_linear" x1="40.255" y1="12.643" x2="97.219" y2="69.606" gradientUnits="userSpaceOnUse"><stop stop-color="#B5DBFF"/><stop offset="1" stop-color="#76E2F8"/></linearGradient><linearGradient id="paint25_linear" x1="33.201" y1="25.312" x2="75.499" y2="67.61" gradientUnits="userSpaceOnUse"><stop stop-color="#EDF5FF"/><stop offset="1" stop-color="#D5E8FE"/></linearGradient><linearGradient id="paint26_linear" x1="18.287" y1="40.227" x2="60.585" y2="82.525" gradientUnits="userSpaceOnUse"><stop stop-color="#EDF5FF"/><stop offset="1" stop-color="#D5E8FE"/></linearGradient><linearGradient id="paint27_linear" x1="37.083" y1="21.43" x2="79.381" y2="63.728" gradientUnits="userSpaceOnUse"><stop stop-color="#EDF5FF"/><stop offset="1" stop-color="#D5E8FE"/></linearGradient><linearGradient id="paint28_linear" x1="15.45" y1="43.063" x2="57.748" y2="85.361" gradientUnits="userSpaceOnUse"><stop stop-color="#EDF5FF"/><stop offset="1" stop-color="#D5E8FE"/></linearGradient><linearGradient id="paint29_linear" x1="22.505" y1="30.393" x2="79.468" y2="87.357" gradientUnits="userSpaceOnUse"><stop stop-color="#B5DBFF"/><stop offset="1" stop-color="#76E2F8"/></linearGradient><linearGradient id="paint30_linear" x1="6.576" y1="46.323" x2="63.539" y2="103.286" gradientUnits="userSpaceOnUse"><stop stop-color="#B5DBFF"/><stop offset="1" stop-color="#76E2F8"/></linearGradient><linearGradient id="paint31_linear" x1="25.72" y1="27.179" x2="82.683" y2="84.142" gradientUnits="userSpaceOnUse"><stop stop-color="#B5DBFF"/><stop offset="1" stop-color="#76E2F8"/></linearGradient><linearGradient id="paint32_linear" x1="33.198" y1="19.866" x2="61.895" y2="71.334" gradientUnits="userSpaceOnUse"><stop stop-color="#B5DBFF"/><stop offset="1" stop-color="#48B2E3"/></linearGradient><linearGradient id="paint33_linear" x1="65.707" y1="54.678" x2="12.835" y2="34.558" gradientUnits="userSpaceOnUse"><stop stop-color="#B5DBFF" stop-opacity="0"/><stop offset=".173" stop-color="#8FC5E9" stop-opacity=".173"/><stop offset=".454" stop-color="#56A4C8" stop-opacity=".454"/><stop offset=".696" stop-color="#2D8DB1" stop-opacity=".696"/><stop offset=".885" stop-color="#147EA2" stop-opacity=".885"/><stop offset="1" stop-color="#0B799D"/></linearGradient><linearGradient id="paint34_linear" x1="50.677" y1="72.281" x2="16.989" y2="46.39" gradientUnits="userSpaceOnUse"><stop stop-color="#B5DBFF" stop-opacity="0"/><stop offset=".173" stop-color="#8FC5E9" stop-opacity=".173"/><stop offset=".454" stop-color="#56A4C8" stop-opacity=".454"/><stop offset=".696" stop-color="#2D8DB1" stop-opacity=".696"/><stop offset=".885" stop-color="#147EA2" stop-opacity=".885"/><stop offset="1" stop-color="#0B799D"/></linearGradient><linearGradient id="paint35_linear" x1="17.639" y1="47.198" x2="30.896" y2="59.051" gradientUnits="userSpaceOnUse"><stop stop-color="#0B799D"/><stop offset="1" stop-color="#07485E"/></linearGradient><linearGradient id="paint36_linear" x1="88.738" y1="62.938" x2="73.556" y2="47.756" gradientUnits="userSpaceOnUse"><stop stop-color="#B5DBFF" stop-opacity="0"/><stop offset=".173" stop-color="#8FC5E9" stop-opacity=".173"/><stop offset=".454" stop-color="#56A4C8" stop-opacity=".454"/><stop offset=".696" stop-color="#2D8DB1" stop-opacity=".696"/><stop offset=".885" stop-color="#147EA2" stop-opacity=".885"/><stop offset="1" stop-color="#0B799D"/></linearGradient><linearGradient id="paint37_linear" x1="70.623" y1="42.329" x2="81.385" y2="51.843" gradientUnits="userSpaceOnUse"><stop stop-color="#0B799D"/><stop offset="1" stop-color="#07485E"/></linearGradient></defs></svg>