<svg width="202" height="2038" fill="none" xmlns="http://www.w3.org/2000/svg"><path d="M13.84 49.24l-.878-.48-.006.013.884.467zm33.54-35.36l-.508-.861-.007.004-.006.003.521.854zm96.98 0l.516-.857-.003-.001-.513.858zm33.54 35.36l-.882.472.002.003.88-.475zm3.9 93.34l-.916-.401-.002.004.918.397zm-23.92 32.24l-.735.678.645.699.73-.609-.64-.768zm-24.96-27.04l-.655-.756-.78.676.7.758.735-.678zm13.78-75.92l-.877.481.004.007.004.006.869-.494zm-20.54-20.8l.494-.87-.006-.003-.007-.004-.481.877zm-60.32 0l-.481-.877-.007.004-.006.004.494.869zm-20.8 20.8l-.87-.494-.003.006-.004.007.877.481zm14.3 75.92l.735.678.704-.763-.789-.675-.65.76zm-24.96 27.04l-.634.773.73.598.639-.693-.735-.678zM10.2 142.58l.918-.397-.918.397zm-7.32-42.9c0-18.398 3.953-35.049 11.844-49.973l-1.768-.934C4.9 64.009.88 80.985.88 99.68h2zm11.837-49.96c8.065-14.756 19.123-26.413 33.184-34.986l-1.042-1.708c-14.366 8.76-25.668 20.677-33.897 35.734l1.755.96zm33.171-34.98C62.108 6.346 78.138 2.14 96 2.14v-2c-18.19 0-34.576 4.287-49.128 12.879l1.016 1.722zM96 2.14c17.863 0 33.802 4.206 47.847 12.598l1.026-1.716C130.491 4.427 114.191.14 96 .14v2zm47.844 12.597c14.231 8.573 25.285 20.226 33.174 34.975l1.764-.944c-8.058-15.064-19.364-26.984-33.906-35.745l-1.032 1.714zm33.176 34.978c8.061 14.921 12.1 31.655 12.1 50.225h2c0-18.87-4.108-35.936-12.34-51.175l-1.76.95zm12.1 50.225c0 15.655-2.752 29.729-8.236 42.239l1.832.802c5.609-12.796 8.404-27.149 8.404-43.041h-2zm-8.238 42.243c-5.486 12.688-13.367 23.306-23.642 31.869l1.28 1.536c10.525-8.77 18.591-19.645 24.198-32.611l-1.836-.794zm-22.267 31.959l-24.96-27.04-1.47 1.356 24.96 27.04 1.47-1.356zm-25.04-25.606c14.424-12.489 21.665-28.015 21.665-46.516h-2c0 17.899-6.972 32.88-20.975 45.004l1.31 1.512zm21.665-46.516c0-11.42-2.549-21.648-7.671-30.654l-1.738.988c4.932 8.674 7.409 18.553 7.409 29.666h2zm-7.663-30.641c-4.944-9.004-11.923-16.07-20.923-21.188l-.988 1.738c8.68 4.936 15.394 11.736 20.157 20.412l1.754-.962zm-20.936-21.196C117.637 45.24 107.415 42.78 96 42.78v2c11.118 0 21.003 2.393 29.679 7.157l.962-1.754zM96 42.78c-11.415 0-21.637 2.46-30.641 7.403l.962 1.754C74.997 47.173 84.881 44.78 96 44.78v-2zm-30.654 7.41c-8.997 5.116-16.06 12.18-21.175 21.176l1.738.988c4.938-8.683 11.742-15.487 20.425-20.425l-.988-1.738zM44.163 71.38c-4.943 9.004-7.403 19.226-7.403 30.641h2c0-11.118 2.393-21.003 7.157-29.679l-1.754-.962zm-7.403 30.64c0 18.505 7.331 34.032 21.93 46.52l1.3-1.52c-14.175-12.125-21.23-27.105-21.23-45h-2zm21.845 45.082l-24.96 27.04 1.47 1.356 24.96-27.04-1.47-1.356zm-23.591 26.945c-10.447-8.564-18.411-19.18-23.896-31.864l-1.836.794c5.609 12.97 13.765 23.846 24.464 32.616l1.268-1.546zm-23.896-31.864C5.632 129.497 2.88 115.334 2.88 99.68h-2c0 15.892 2.795 30.33 8.402 43.297l1.836-.794zM111.6 312.864h-1v1h1v-1zm0-47.32h1v-1h-1v1zm-106.6 0H4v1h1v-1zm0-40.3v-1H4v1h1zm106.6 0v1h1v-1h-1zm0-47.32v-1h-1v1h1zm33.28 0h1v-1h-1v1zm0 134.94v1h1v-1h-1zm-32.28 0v-47.32h-2v47.32h2zm-1-48.32H5v2h106.6v-2zm-105.6 1v-40.3H4v40.3h2zm-1-39.3h106.6v-2H5v2zm107.6-1v-47.32h-2v47.32h2zm-1-46.32h33.28v-2H111.6v2zm32.28-1v134.94h2v-134.94h-2zm1 133.94H111.6v2h33.28v-2zm-6.76 108.463l-.884-.468-.004.008-.004.008.892.452zm-25.74 28.08l.52.854-.52-.854zm-74.88 0l-.52.854.52-.854zm-26-28.08l-.89.458.003.005.887-.463zm-2.6-76.7l-.922-.387-.004.009-.003.009.929.369zm19.24-26.78l.727-.686-.653-.692-.723.618.649.76zm21.84 23.14l.696.718.709-.686-.678-.718-.727.686zm-8.84 64.48l.823-.568-.823.568zm20.54 14.82l-.287.958 1.287.386v-1.344h-1zm0-58.76v-1h-1v1h1zm27.82 0h1v-1h-1v1zm0 58.24h-1v1.387l1.316-.438-.316-.949zm19.76-14.82l-.826-.564.826.564zm-9.36-63.96l-.731-.682-.67.718.705.682.696-.718zm21.58-23.14l.642-.767-.727-.608-.646.693.731.682zm19.24 26.78l-.927.374.003.008.924-.382zm5.76 36.4c0 14.939-3.09 28.208-9.244 39.832l1.768.936c6.326-11.949 9.476-25.546 9.476-40.768h-2zm-9.252 39.848c-5.985 11.8-14.439 21.018-25.368 27.678l1.04 1.708c11.258-6.86 19.964-16.361 26.112-28.482l-1.784-.904zm-25.368 27.678c-10.926 6.658-23.224 9.994-36.92 9.994v2c14.037 0 26.7-3.424 37.96-10.286l-1.04-1.708zm-36.92 9.994c-13.696 0-25.994-3.336-36.92-9.994l-1.04 1.708c11.26 6.862 23.923 10.286 37.96 10.286v-2zm-36.92-9.994c-10.931-6.661-19.474-15.883-25.633-27.689l-1.774.926c6.321 12.114 15.112 21.613 26.367 28.471l1.04-1.708zm-25.63-27.684C6.404 408.243 3.4 394.97 3.4 380.027h-2c0 15.217 3.062 28.811 9.21 40.758l1.78-.916zM3.4 380.027c0-13.237 2.149-25.243 6.43-36.031l-1.86-.738C3.586 354.31 1.4 366.571 1.4 380.027h2zm6.422-36.013c4.45-10.612 10.774-19.408 18.968-26.407l-1.3-1.52c-8.446 7.214-14.95 16.272-19.512 27.153l1.844.774zm17.59-26.481l21.84 23.14 1.455-1.372-21.84-23.14-1.454 1.372zm21.872 21.736C38.172 350.029 32.6 363.114 32.6 378.467h2c0-14.807 5.348-27.375 16.076-37.762l-1.392-1.436zM32.6 378.467c0 10.228 2.56 19.099 7.717 26.568l1.646-1.136c-4.896-7.091-7.363-15.553-7.363-25.432h-2zm7.717 26.568c5.159 7.472 12.197 12.546 21.076 15.21l.574-1.916c-8.454-2.536-15.11-7.342-20.004-14.43l-1.646 1.136zm22.363 14.252v-58.76h-2v58.76h2zm-1-57.76H89.5v-2H61.68v2zm26.82-1v58.24h2v-58.24h-2zm1.316 59.189c8.523-2.841 15.291-7.914 20.27-15.205l-1.652-1.128c-4.727 6.923-11.133 11.73-19.25 14.435l.632 1.898zm20.27-15.205c4.983-7.297 7.454-15.993 7.454-26.044h-2c0 9.71-2.382 17.999-7.106 24.916l1.652 1.128zm7.454-26.044c0-15.188-5.664-28.271-16.944-39.198l-1.392 1.436c10.907 10.566 16.336 23.137 16.336 37.762h2zm-16.909-37.798l21.58-23.14-1.462-1.364-21.58 23.14 1.462 1.364zm20.207-23.055c8.362 6.996 14.68 15.786 18.955 26.387l1.854-.748c-4.391-10.892-10.9-19.956-19.525-27.173l-1.284 1.534zm18.958 26.395c4.45 10.784 6.684 22.785 6.684 36.018h2c0-13.461-2.273-25.726-6.836-36.781l-1.848.763zm5.084 142.057h1v-1h-1v1zm0 40.3v1h1v-1h-1zm-83.2 0v-1h-2.8l2.166 1.774.634-.774zm83.2 68.12h1v-.473l-.366-.3-.634.773zm0 37.18v1h1v-1h-1zm-139.88 0H4v1h1v-1zm0-40.3v-1H4v1h1zm83.2 0v1h2.808l-2.176-1.775-.632.775zM5 523.506H4v.475l.368.3.632-.775zm0-37.44v-1H4v1h1zm195.26 24.18h1v-1.006l-1.006.006.006 1zm0 26.52l.029 1 .971-.028v-.972h-1zm-14.3 4.94l-.669-.743-.02.018-.018.018.707.707zm0 28.6l.707-.707-.707.707zm14.3 5.2h1v-1h-1v1zm0 27.04l-.006 1 1.006.007v-1.007h-1zm-56.38-116.48v40.3h2v-40.3h-2zm1 39.3h-83.2v2h83.2v-2zm-83.833 1.774l83.2 68.12 1.267-1.547-83.2-68.12-1.267 1.547zm82.833 67.346v37.18h2v-37.18h-2zm1 36.18H5v2h139.88v-2zm-138.88 1v-40.3H4v40.3h2zm-1-39.3h83.2v-2H5v2zm83.832-1.775l-83.2-67.859-1.264 1.549 83.2 67.86 1.264-1.55zM6 523.506v-37.44H4v37.44h2zm-1-36.44h139.88v-2H5v2zm155.96 69.2c0-15.127 3.333-26.31 9.827-33.726 6.473-7.392 16.236-11.208 29.479-11.294l-.012-2c-13.624.088-24.011 4.028-30.971 11.977-6.94 7.924-10.323 19.664-10.323 35.043h2zm38.3-46.02v26.52h2v-26.52h-2zm.971 25.521c-6.231.178-11.25 1.875-14.94 5.196l1.338 1.487c3.243-2.919 7.757-4.515 13.66-4.684l-.058-1.999zm-14.978 5.232c-3.538 3.538-5.233 8.595-5.233 15.007h2c0-6.067 1.598-10.544 4.647-13.592l-1.414-1.415zm-5.233 15.007c0 6.413 1.695 11.47 5.233 15.007l1.414-1.414c-3.049-3.049-4.647-7.525-4.647-13.593h-2zm5.233 15.007c3.697 3.697 8.742 5.493 15.007 5.493v-2c-5.868 0-10.356-1.67-13.593-4.907l-1.414 1.414zm14.007 4.493v27.04h2v-27.04h-2zm1.006 26.04c-13.241-.085-23.003-3.922-29.477-11.356-6.495-7.459-9.829-18.708-9.829-33.924h-2c0 15.465 3.383 27.27 10.321 35.237 6.96 7.993 17.348 11.955 30.973 12.043l.012-2zM58.04 732.276l.577.817.423-.299v-.518h-1zm0-21.06h1v-1h-1v1zm-53.04 0H4v1h1v-1zm0-40.56v-1H4v1h1zm139.88 0h1v-1h-1v1zm0 40.56v1h1v-1h-1zm-54.34 0v-1h-1v1h1zm0 21.84h-1v.522l.427.298.573-.82zm54.34 37.96h1v-.521l-.427-.299-.573.82zm0 43.16l-.589.808 1.589 1.158v-1.966h-1zm-67.08-48.88l.589-.808-.585-.426-.587.422.583.812zM5 817.556H4v1.949l1.583-1.136-.583-.813zm0-47.84l-.577-.817-.423.299v.518h1zm54.04-37.44v-21.06h-2v21.06h2zm-1-22.06H5v2h53.04v-2zm-52.04 1v-40.56H4v40.56h2zm-1-39.56h139.88v-2H5v2zm138.88-1v40.56h2v-40.56h-2zm1 39.56H90.54v2h54.34v-2zm-55.34 1v21.84h2v-21.84h-2zm.427 22.66l54.34 37.96 1.146-1.64-54.34-37.96-1.146 1.64zm53.913 37.14v43.16h2v-43.16h-2zm1.589 42.352l-67.08-48.88-1.178 1.616 67.08 48.88 1.178-1.616zm-68.252-48.884l-72.8 52.26 1.166 1.625 72.8-52.26-1.166-1.625zM6 817.556v-47.84H4v47.84h2zm-.423-47.023l53.04-37.44-1.154-1.634-53.04 37.44 1.154 1.634zm6.443 88.363l-.88-.473-.005.008-.004.008.889.457zm25.74-27.3l-.517-.856.517.856zm74.36 0l.517-.856-.517.856zm25.48 27.3l-.886.463.002.005.884-.468zm0 79.3l-.881-.473-.005.01.886.463zm-25.48 27.3l.517.857-.517-.857zm-74.36 0l-.517.857.517-.857zm-25.74-27.3l-.886.463.005.011.881-.474zm34.58-14.04l.69-.724-.001-.001-.689.725zm56.42 0l-.68-.733-.009.008-.009.009.698.716zm0-51.22l-.698.716.009.009.689-.725zm-56.42 0l-.69-.724-.008.008.698.716zm-42.68 25.74c0-14.592 3.003-27.692 8.99-39.322l-1.78-.915c-6.146 11.943-9.21 25.363-9.21 40.237h2zm8.98-39.306c6.159-11.461 14.615-20.427 25.377-26.917l-1.034-1.713c-11.079 6.682-19.782 15.917-26.104 27.683l1.762.947zm25.377-26.917c10.75-6.485 22.962-9.737 36.663-9.737v-2c-14.032 0-26.607 3.335-37.697 10.024l1.033 1.713zm36.663-9.737c13.701 0 25.913 3.252 36.664 9.737l1.033-1.713c-11.09-6.689-23.665-10.024-37.697-10.024v2zm36.664 9.737c10.758 6.489 19.125 15.451 25.11 26.906l1.772-.926c-6.149-11.771-14.768-21.009-25.849-27.693l-1.033 1.713zm25.112 26.911c6.156 11.628 9.244 24.725 9.244 39.312h2c0-14.879-3.152-28.302-9.476-40.248l-1.768.936zm9.244 39.312c0 14.588-3.088 27.596-9.241 39.047l1.762.947c6.327-11.776 9.479-25.115 9.479-39.994h-2zm-9.246 39.057c-5.985 11.456-14.352 20.418-25.11 26.907l1.033 1.713c11.081-6.685 19.7-15.923 25.849-27.694l-1.772-.926zm-25.11 26.907c-10.751 6.484-22.963 9.736-36.664 9.736v2c14.032 0 26.607-3.335 37.697-10.023l-1.033-1.713zm-36.664 9.736c-13.701 0-25.913-3.252-36.663-9.736l-1.034 1.713c11.09 6.688 23.665 10.023 37.697 10.023v-2zm-36.663-9.736c-10.762-6.491-19.218-15.456-25.376-26.917l-1.762.947c6.322 11.765 15.026 21 26.104 27.683l1.033-1.713zm-25.37-26.907C6.922 926.28 3.92 913.269 3.92 898.676h-2c0 14.875 3.063 28.21 9.214 39.983l1.772-.926zM35.2 898.676c0 10.648 3.56 19.412 10.711 26.205l1.378-1.45c-6.716-6.38-10.089-14.602-10.089-24.755h-2zm10.71 26.205c7.33 6.971 17.042 10.415 29.03 10.415v-2c-11.585 0-20.766-3.316-27.65-9.864l-1.38 1.449zm29.03 10.415c11.987 0 21.619-3.444 28.778-10.424l-1.396-1.432c-6.708 6.54-15.796 9.856-27.382 9.856v2zm28.76-10.406c7.327-6.791 10.98-15.558 10.98-26.214h-2c0 10.145-3.453 18.364-10.34 24.747l1.36 1.467zm10.98-26.214c0-10.655-3.653-19.503-10.971-26.464l-1.378 1.449c6.895 6.559 10.349 14.871 10.349 25.015h2zm-10.962-26.456c-7.159-6.98-16.79-10.424-28.778-10.424v2c11.586 0 20.674 3.316 27.382 9.856l1.396-1.432zM74.94 861.796c-11.988 0-21.7 3.444-29.03 10.416l1.38 1.449c6.884-6.549 16.065-9.865 27.65-9.865v-2zM45.902 872.22C38.76 879.183 35.2 888.029 35.2 898.676h2c0-10.152 3.373-18.467 10.098-25.024l-1.396-1.432zm98.978 131.05h1v-1h-1v1zm0 40.3v1h1v-1h-1zm-54.6 0v-1h-1v1h1zm0 60.84h-1v1h1v-1zm54.6 0h1v-1h-1v1zm0 40.56v1h1v-1h-1zm-139.88 0H4v1h1v-1zm0-40.56v-1H4v1h1zm52.26 0v1h1v-1h-1zm0-60.84h1v-1h-1v1zm-52.26 0H4v1h1v-1zm0-40.3v-1H4v1h1zm138.88 0v40.3h2v-40.3h-2zm1 39.3h-54.6v2h54.6v-2zm-55.6 1v60.84h2v-60.84h-2zm1 61.84h54.6v-2h-54.6v2zm53.6-1v40.56h2v-40.56h-2zm1 39.56H5v2h139.88v-2zm-138.88 1v-40.56H4v40.56h2zm-1-39.56h52.26v-2H5v2zm53.26-1v-60.84h-2v60.84h2zm-1-61.84H5v2h52.26v-2zm-51.26 1v-40.3H4v40.3h2zm-1-39.3h139.88v-2H5v2zm7.02 205.27l-.88-.47-.005.01h-.004l.889.46zm25.74-27.3l-.517-.86.517.86zm74.36 0l.517-.86-.517.86zm25.48 27.3l-.886.46.002.01.884-.47zm0 79.3l-.881-.47-.005.01.886.46zm-25.48 27.3l.517.86-.517-.86zm-74.36 0l-.517.86.517-.86zm-25.74-27.3l-.886.46.005.01.881-.47zm34.58-14.04l.69-.72h-.001l-.689.72zm56.42 0l-.68-.73-.009.01h-.009l.698.72zm0-51.22l-.698.72.009.01.689-.73zm-56.42 0l-.69-.72h-.008l.698.72zm-42.68 25.74c0-14.59 3.003-27.69 8.99-39.32l-1.78-.92c-6.146 11.95-9.21 25.37-9.21 40.24h2zm8.98-39.31c6.159-11.46 14.615-20.42 25.377-26.91l-1.034-1.72c-11.079 6.69-19.782 15.92-26.104 27.69l1.762.94zm25.377-26.91c10.75-6.49 22.962-9.74 36.663-9.74v-2c-14.032 0-26.607 3.34-37.697 10.02l1.033 1.72zm36.663-9.74c13.701 0 25.913 3.25 36.664 9.74l1.033-1.72c-11.09-6.68-23.665-10.02-37.697-10.02v2zm36.664 9.74c10.758 6.49 19.125 15.45 25.11 26.9l1.772-.92c-6.149-11.77-14.768-21.01-25.849-27.7l-1.033 1.72zm25.112 26.91c6.156 11.63 9.244 24.72 9.244 39.31h2c0-14.88-3.152-28.3-9.476-40.25l-1.768.94zm9.244 39.31c0 14.59-3.088 27.6-9.241 39.05l1.762.94c6.327-11.77 9.479-25.11 9.479-39.99h-2zm-9.246 39.06c-5.985 11.45-14.352 20.42-25.11 26.9l1.033 1.72c11.081-6.69 19.7-15.93 25.849-27.7l-1.772-.92zm-25.11 26.9c-10.751 6.49-22.963 9.74-36.664 9.74v2c14.032 0 26.607-3.33 37.697-10.02l-1.033-1.72zm-36.664 9.74c-13.701 0-25.913-3.25-36.663-9.74l-1.034 1.72c11.09 6.69 23.665 10.02 37.697 10.02v-2zm-36.663-9.74c-10.762-6.49-19.218-15.45-25.376-26.91l-1.762.94c6.322 11.77 15.026 21 26.104 27.69l1.033-1.72zm-25.37-26.9c-5.984-11.46-8.987-24.47-8.987-39.06h-2c0 14.88 3.063 28.21 9.214 39.98l1.772-.92zm22.293-39.06c0 10.65 3.56 19.41 10.711 26.21l1.378-1.45c-6.716-6.38-10.089-14.61-10.089-24.76h-2zm10.71 26.21c7.33 6.97 17.042 10.41 29.03 10.41v-2c-11.585 0-20.766-3.32-27.65-9.86l-1.38 1.45zm29.03 10.41c11.987 0 21.619-3.44 28.778-10.42l-1.396-1.44c-6.708 6.54-15.796 9.86-27.382 9.86v2zm28.76-10.41c7.327-6.79 10.98-15.55 10.98-26.21h-2c0 10.15-3.453 18.36-10.34 24.75l1.36 1.46zm10.98-26.21c0-10.65-3.653-19.5-10.971-26.46l-1.378 1.45c6.895 6.55 10.349 14.87 10.349 25.01h2zm-10.962-26.46c-7.159-6.98-16.79-10.42-28.778-10.42v2c11.586 0 20.674 3.32 27.382 9.86l1.396-1.44zm-28.778-10.42c-11.988 0-21.7 3.44-29.03 10.42l1.38 1.45c6.884-6.55 16.065-9.87 27.65-9.87v-2zm-29.038 10.42c-7.142 6.97-10.702 15.81-10.702 26.46h2c0-10.15 3.373-18.47 10.098-25.02l-1.396-1.44zM5 1490.42v-1H4v1h1zm83.72 0v1h3.63l-3.118-1.86-.512.86zm-70.2-41.86h-1v.57l.488.29.512-.86zm0-17.16l-.501-.87-.499.29v.58h1zm70.46-40.82l.501.86 3.22-1.86H88.98v1zm-83.98 0H4v1h1v-1zm0-36.66v-1H4v1h1zm139.88 0h1v-1h-1v1zm0 42.38l.484.87.516-.28v-.59h-1zm-80.86 44.72l-.484-.88-1.534.85 1.51.89.508-.86zm80.86 47.58h1v-.57l-.493-.29-.507.86zm0 37.96l.004 1 .996-.01v-.99h-1zM5 1527.08H4v1h1.004l-.004-1zm0-35.66h83.72v-2H5v2zm84.232-1.86l-70.2-41.86-1.024 1.72 70.2 41.86 1.024-1.72zm-69.712-41v-17.16h-2v17.16h2zm-.499-16.3l70.46-40.82-1.002-1.73-70.46 40.82 1.002 1.73zm69.959-42.68H5v2h83.98v-2zm-82.98 1v-36.66H4v36.66h2zm-1-35.66h139.88v-2H5v2zm138.88-1v42.38h2v-42.38h-2zm.516 41.5l-80.86 44.72.968 1.75 80.86-44.72-.968-1.75zm-80.883 46.46l80.86 47.58 1.014-1.72-80.86-47.58-1.014 1.72zm80.367 46.72v37.96h2v-37.96h-2zm.996 36.96l-139.88.52.008 2 139.88-.52-.008-2zM6 1527.08v-36.66H4v36.66h2zm138.88 38.85h1v-1h-1v1zm0 40.3v1h1v-1h-1zm-83.2 0v-1h-2.8l2.166 1.77.634-.77zm83.2 68.12h1v-.47l-.366-.3-.634.77zm0 37.18v1h1v-1h-1zm-139.88 0H4v1h1v-1zm0-40.3v-1H4v1h1zm83.2 0v1h2.808l-2.176-1.78-.632.78zM5 1603.37H4v.47l.368.3.632-.77zm0-37.44v-1H4v1h1zm138.88 0v40.3h2v-40.3h-2zm1 39.3h-83.2v2h83.2v-2zM61.047 1607l83.2 68.12 1.267-1.54-83.2-68.12-1.267 1.54zm82.833 67.35v37.18h2v-37.18h-2zm1 36.18H5v2h139.88v-2zm-138.88 1v-40.3H4v40.3h2zm-1-39.3h83.2v-2H5v2zm83.832-1.78l-83.2-67.86-1.264 1.55 83.2 67.86 1.264-1.55zM6 1603.37v-37.44H4v37.44h2zm-1-36.44h139.88v-2H5v2zm53.04 245.21l.577.82.423-.3v-.52h-1zm0-21.06h1v-1h-1v1zm-53.04 0H4v1h1v-1zm0-40.56v-1H4v1h1zm139.88 0h1v-1h-1v1zm0 40.56v1h1v-1h-1zm-54.34 0v-1h-1v1h1zm0 21.84h-1v.52l.427.3.573-.82zm54.34 37.96h1v-.52l-.427-.3-.573.82zm0 43.16l-.589.81 1.589 1.16v-1.97h-1zm-67.08-48.88l.589-.81-.585-.42-.587.42.583.81zM5 1897.42H4v1.95l1.583-1.14-.583-.81zm0-47.84l-.577-.82-.423.3v.52h1zm54.04-37.44v-21.06h-2v21.06h2zm-1-22.06H5v2h53.04v-2zm-52.04 1v-40.56H4v40.56h2zm-1-39.56h139.88v-2H5v2zm138.88-1v40.56h2v-40.56h-2zm1 39.56H90.54v2h54.34v-2zm-55.34 1v21.84h2v-21.84h-2zm.427 22.66l54.34 37.96 1.146-1.64-54.34-37.96-1.146 1.64zm53.913 37.14v43.16h2v-43.16h-2zm1.589 42.35l-67.08-48.88-1.178 1.62 67.08 48.88 1.178-1.62zm-68.252-48.88l-72.8 52.26 1.166 1.62 72.8-52.26-1.166-1.62zM6 1897.42v-47.84H4v47.84h2zm-.423-47.02l53.04-37.44-1.154-1.64-53.04 37.44 1.154 1.64zm125.783 168.66l-.745-.67-.005.01.75.66zM5 2036.48H4v1h1v-1zm0-37.96v-1H4v1h1zm17.42 0v1h3.68l-3.174-1.87-.506.87zM8.38 1927.8l-.906-.43-.004.01.91.42zm15.08-17.94l-.544-.84.544.84zm52.52 8.32l.798-.61h-.005l-.793.61zm11.18 77.74h-1v1h1v-1zm20.28-8.06l-.742-.67h-.006l-.006.01.754.66zm3.64-46.28l-.953.3.002.01h.002l.949-.31zm-9.36-18.2l-.457-.89-1.083.55.757.96.783-.62zm28.34-14.56l.817-.58-.5-.71-.774.4.457.89zm12.48 27.3l.964-.27h-.001l-.963.27zM34.9 1984.48l-.865.5.006.01.006.01.853-.52zm14.3 11.44l-.34.94.165.06h.175v-1zm14.3 0v1h1v-1h-1zm-28.86-46.8l-.788-.62-.014.02-.014.02.816.58zm111.32 20.02c0 21.51-5.164 37.88-15.345 49.25l1.49 1.33c10.619-11.85 15.855-28.77 15.855-50.58h-2zm-15.35 49.26c-9.978 11.33-25.173 17.08-45.79 17.08v2c20.983 0 36.815-5.87 47.29-17.76l-1.5-1.32zm-45.79 17.08H5v2h79.82v-2zm-78.82 1v-37.96H4v37.96h2zm-1-36.96h17.42v-2H5v2zm17.926-1.87c-12.583-7.38-19.006-21.18-19.006-41.77h-2c0 21 6.577 35.63 19.994 43.5l1.012-1.73zM3.92 1955.88c0-10.64 1.801-19.85 5.37-27.67l-1.82-.83c-3.711 8.13-5.55 17.64-5.55 28.5h2zm5.366-27.66c3.571-7.65 8.481-13.48 14.718-17.52l-1.088-1.68c-6.59 4.27-11.733 10.41-15.442 18.35l1.812.85zm14.718-17.52c6.24-4.05 13.33-6.08 21.296-6.08v-2c-8.326 0-15.798 2.13-22.384 6.4l1.088 1.68zm21.296-6.08c12.712 0 22.636 4.72 29.887 14.17l1.586-1.22c-7.656-9.97-18.185-14.95-31.473-14.95v2zm29.882 14.16c7.261 9.62 10.978 24.53 10.978 44.9h2c0-20.54-3.736-35.97-11.382-46.11l-1.596 1.21zm10.978 44.9v32.24h2v-32.24h-2zm1 33.24c9.054 0 16.12-2.76 21.034-8.41l-1.508-1.31c-4.446 5.1-10.9 7.72-19.526 7.72v2zm21.022-8.39c5.084-5.63 7.538-13.98 7.538-24.85h-2c0 10.61-2.399 18.39-7.022 23.51l1.484 1.34zm7.538-24.85c0-7.57-1.232-15.04-3.691-22.42l-1.898.63c2.394 7.18 3.589 14.44 3.589 21.79h2zm-3.687-22.41c-2.284-7.2-5.456-13.38-9.53-18.51l-1.566 1.24c3.9 4.92 6.967 10.87 9.19 17.88l1.906-.61zm-9.856-17l28.34-14.56-.914-1.78-28.34 14.56.914 1.78zm27.066-14.88c5.297 7.52 9.412 16.51 12.334 27l1.926-.54c-2.972-10.67-7.176-19.87-12.626-27.61l-1.634 1.15zm12.333 26.99c2.922 10.66 4.384 21.58 4.384 32.76h2c0-11.36-1.485-22.45-4.456-33.29l-1.928.53zM29.22 1966.02c0 7.09 1.597 13.42 4.815 18.96l1.73-1.01c-3.022-5.2-4.545-11.18-4.545-17.95h-2zm4.827 18.98c3.419 5.58 8.372 9.53 14.813 11.86l.68-1.88c-6.039-2.18-10.62-5.86-13.787-11.03l-1.706 1.05zm15.153 11.92h14.3v-2H49.2v2zm15.3-1v-27.82h-2v27.82h2zm0-27.82c0-8.4-1.372-14.87-4.259-19.27-2.935-4.47-7.363-6.69-13.121-6.69v2c5.162 0 8.924 1.94 11.449 5.79 2.573 3.92 3.931 9.92 3.931 18.17h2zm-17.38-25.96c-5.498 0-9.952 2.12-13.267 6.36l1.575 1.23c2.924-3.73 6.79-5.59 11.692-5.59v-2zm-13.296 6.4c-3.105 4.38-4.604 10.24-4.604 17.48h2c0-6.98 1.448-12.39 4.236-16.33l-1.632-1.15z" fill="#C5C5C5"/></svg>